<svg viewBox="0 0 42 42" xmlns="http://www.w3.org/2000/svg">
    <path fill-rule="evenodd" clip-rule="evenodd"
        d="M21 42C32.5977 42 42 32.598 42 21C42 9.40198 32.5977 0 21 0C9.40234 0 0 9.40198 0 21C0 32.598 9.40234 42 21 42ZM33.1523 8L23.4736 19.0093L34 34H26.2578L19.1689 23.9052L10.2939 34H8L18.1504 22.4551L8 8H15.7422L22.4551 17.5592L30.8594 8H33.1523ZM19.3037 21.1431L20.332 22.5825L27.3369 32.3872H30.8604L22.2754 20.3723L21.2471 18.933L14.6436 9.68958H11.1201L19.3037 21.1431Z" />
</svg>