<svg viewBox="0 0 39 30" xmlns="http://www.w3.org/2000/svg">
    <path
        d="M37.702 3.98003L36.1907 2.46875L22.1915 16.4679C20.4416 18.2178 17.4986 18.2178 15.7487 16.4679L1.74956 2.5483L0.238281 4.05956L10.6581 14.4794L0.238281 24.8992L1.74956 26.4105L12.1694 15.9907L14.2374 18.0587C15.5101 19.3314 17.1805 20.0473 18.9303 20.0473C20.6802 20.0473 22.3506 19.3314 23.6232 18.0587L25.6913 15.9907L36.1111 26.4105L37.6224 24.8992L27.2026 14.4794L37.702 3.98003Z" />
    <path
        d="M34.7593 29.1119H3.34071C1.51128 29.1119 0 27.6006 0 25.7712V3.34071C0 1.51127 1.51128 0 3.34071 0H34.7593C36.5887 0 38.1 1.51127 38.1 3.34071V25.7712C38.1 27.6006 36.5887 29.1119 34.7593 29.1119ZM3.26117 2.1476C2.62484 2.1476 2.1476 2.62484 2.1476 3.26116V25.6917C2.1476 26.328 2.62484 26.8052 3.26117 26.8052H34.6797C35.3161 26.8052 35.7933 26.328 35.7933 25.6917V3.26116C35.7933 2.62484 35.3161 2.1476 34.6797 2.1476H3.26117Z" />
</svg>